<?xml version="1.0" standalone="no"?>
<!DOCTYPE svg PUBLIC "-//W3C//DTD SVG 20010904//EN"
 "http://www.w3.org/TR/2001/REC-SVG-20010904/DTD/svg10.dtd">
<svg version="1.0" xmlns="http://www.w3.org/2000/svg"
 width="700.000000pt" height="700.000000pt" viewBox="0 0 700.000000 700.000000"
 preserveAspectRatio="xMidYMid meet">
<metadata>
Created by potrace 1.11, written by Peter Selinger 2001-2013
</metadata>
<g transform="translate(0.000000,700.000000) scale(0.100000,-0.100000)"
fill="#000000" stroke="none">
<path d="M5645 6128 c-98 -13 -157 -50 -290 -183 -66 -66 -132 -134 -145 -150
-14 -17 -50 -60 -81 -95 -31 -36 -144 -177 -252 -315 -108 -137 -200 -254
-205 -260 -4 -5 -50 -66 -102 -135 -52 -68 -101 -131 -107 -140 -14 -16 -125
-161 -302 -393 -62 -82 -119 -156 -126 -165 -15 -18 -177 -228 -210 -271 -69
-91 -319 -399 -424 -521 -167 -195 -381 -406 -459 -451 -57 -34 -66 -36 -108
-28 -127 24 -317 211 -643 635 -349 454 -395 509 -530 644 -111 110 -155 144
-233 179 -236 105 -698 -238 -921 -684 -73 -145 -117 -299 -117 -403 1 -83 60
-201 182 -362 72 -95 75 -99 187 -229 164 -189 494 -527 751 -768 41 -39 94
-88 116 -109 23 -22 83 -77 134 -124 51 -47 98 -90 104 -95 13 -12 179 -160
221 -197 203 -179 645 -540 755 -618 164 -115 252 -167 297 -173 45 -7 125 43
253 158 85 76 621 616 745 749 161 174 237 256 265 286 14 14 63 69 110 121
47 51 96 106 110 120 23 24 130 143 172 191 21 24 149 167 163 182 9 10 162
185 279 320 28 32 56 64 61 70 6 6 37 43 70 81 33 39 62 72 65 75 3 3 30 34
60 70 30 36 60 70 65 76 10 11 34 40 171 204 266 320 686 851 743 940 8 14 18
27 21 30 32 31 199 295 250 395 66 130 73 181 41 306 -59 229 -221 484 -451
707 -247 241 -485 356 -685 330z"/>
</g>
</svg>
